<?xml version="1.0" encoding="UTF-8"?>
<level>
  <owner>Fistachka</owner>
  <repo>ohrana2</repo>
  <version>v1.0.4</version>
  <next number="1" owner="Fistachka" repo="umka"/>
  <readme>
    <ru>246075d7df36dbbfcedb149160576ade87b04a91a471c8f4a25ba1ade7a8dfdc</ru>
    <en>219e0fb662ff748f213e3bdaff9a2bf4f38971ca48e89bd93d6a146fe30381af</en>
  </readme>
  <license>b1b99f5538d1fd3702219bff50c665196dfa42f6ee755c37fe41a6178d6bc6e5</license>
  <exercise number="1">
    <scale>major</scale>
    <bpm>120</bpm>
    <lowestNote>1</lowestNote>
    <tonalities>5</tonalities>
    <video name="17t.mp4" size="2117885" type="video/mp4" volume="0.5">87ba0d9113fe914b8cb7c43e1baace88bdfea98516c6ff66295dc6ecb51f67df</video>
    <notes>
      <note number="1" values="5" ticks="700" durationTicks="90" ppq="96" velocity="0.843"/>
      <note number="2" values="18" ticks="796" durationTicks="83" ppq="96" velocity="0.913"/>
      <note number="3" values="5" ticks="891" durationTicks="97" ppq="96" velocity="0.834"/>
      <note number="4" values="5" ticks="288" durationTicks="95" ppq="96" velocity="0.834"/>
      <note number="5" values="5" ticks="384" durationTicks="95" ppq="96" velocity="0.834"/>
      <note number="6" values="5" ticks="480" durationTicks="95" ppq="96" velocity="0.834"/>
    </notes>
  </exercise>
  <exercise number="2">
    <scale>major</scale>
    <bpm>120</bpm>
    <lowestNote>1</lowestNote>
    <tonalities>5</tonalities>
    <video name="18.mp4" size="2974712" type="video/mp4" volume="0.5">25a2a430526bd48f8931c8fbdfefa9ebdd9760f71756dea2853d19ebd2d1bf74</video>
    <notes>
      <note number="1" values="3" ticks="60" durationTicks="48" ppq="96" velocity="0.843"/>
      <note number="2" values="1" ticks="107" durationTicks="50" ppq="96" velocity="0.779"/>
      <note number="3" values="4" ticks="157" durationTicks="53" ppq="96" velocity="0.832"/>
      <note number="4" values="4" ticks="229" durationTicks="20" ppq="96" velocity="0.772"/>
    </notes>
  </exercise>
  <exercise number="3">
    <scale>major</scale>
    <bpm>120</bpm>
    <lowestNote>85</lowestNote>
    <tonalities>5</tonalities>
    <video name="19.mp4" size="2537451" type="video/mp4" volume="0.5">fb796d9c139d4176baca346be64792ae2d052cb4f31fe0f63c8ce3e5b1e9810e</video>
    <notes>
      <note number="1" values="85" ticks="17" durationTicks="48" ppq="96" velocity="0.792"/>
      <note number="2" values="86" ticks="67" durationTicks="41" ppq="96" velocity="0.854"/>
      <note number="3" values="87" ticks="115" durationTicks="47" ppq="96" velocity="0.777"/>
      <note number="4" values="1" ticks="163" durationTicks="79" ppq="96" velocity="0.887"/>
    </notes>
  </exercise>
  <exercise number="4">
    <scale>major</scale>
    <bpm>120</bpm>
    <lowestNote>85</lowestNote>
    <tonalities>5</tonalities>
    <video name="20.mp4" size="2264648" type="video/mp4" volume="0.5">c87fd170805be651da308f0494ac268fe2e0c856802f76c0143d9856838d2542</video>
    <notes>
      <note number="1" values="4" ticks="35" durationTicks="46" ppq="96" velocity="0.792"/>
      <note number="2" values="3" ticks="81" durationTicks="46" ppq="96" velocity="0.849"/>
      <note number="3" values="2" ticks="130" durationTicks="49" ppq="96" velocity="0.789"/>
      <note number="4" values="1" ticks="182" durationTicks="71" ppq="96" velocity="0.889"/>
    </notes>
  </exercise>
  <exercise number="5">
    <scale>major</scale>
    <bpm>120</bpm>
    <lowestNote>85</lowestNote>
    <tonalities>5</tonalities>
    <video name="21.mp4" size="2287163" type="video/mp4" volume="0.5">74d9173ff96dba3b7a76a1f37f0c40c64b3221c9fec37e0de59159679a376535</video>
    <notes>
      <note number="1" values="85" ticks="9" durationTicks="48" ppq="96" velocity="0.787"/>
      <note number="2" values="86" ticks="59" durationTicks="41" ppq="96" velocity="0.85"/>
      <note number="3" values="87" ticks="107" durationTicks="47" ppq="96" velocity="0.772"/>
      <note number="4" values="1" ticks="155" durationTicks="79" ppq="96" velocity="0.882"/>
    </notes>
  </exercise>
  <exercise number="6">
    <scale>major</scale>
    <bpm>120</bpm>
    <lowestNote>1</lowestNote>
    <tonalities>5</tonalities>
    <video name="22.mp4" size="2312157" type="video/mp4" volume="0.5">41b5339a0364debcdc65e6df55dc6c1f10f1f7ec534198d130175319b2872095</video>
    <notes>
      <note number="1" values="5" ticks="29" durationTicks="79" ppq="96" velocity="0.819"/>
      <note number="2" values="18" ticks="127" durationTicks="81" ppq="96" velocity="0.889"/>
      <note number="3" values="5" ticks="224" durationTicks="124" ppq="96" velocity="0.862"/>
      <note number="4" values="5" ticks="288" durationTicks="95" ppq="96" velocity="0.862"/>
    </notes>
  </exercise>
  <exercise number="7">
    <scale>major</scale>
    <bpm>120</bpm>
    <lowestNote>1</lowestNote>
    <tonalities>5</tonalities>
    <video name="23t.mp4" size="1949002" type="video/mp4" volume="0.5">1fc735c39ac1743a08fecf3bc3593e4f0735f1e3217e512c65a2af149eacdb5d</video>
    <notes>
      <note number="1" values="3" ticks="128" durationTicks="38" ppq="96" velocity="0.867"/>
      <note number="2" values="1" ticks="176" durationTicks="49" ppq="96" velocity="0.832"/>
      <note number="3" values="4" ticks="224" durationTicks="57" ppq="96" velocity="0.887"/>
      <note number="4" values="4" ticks="297" durationTicks="24" ppq="96" velocity="0.814"/>
      <note number="5" values="3" ticks="320" durationTicks="49" ppq="96" velocity="0.864"/>
      <note number="6" values="2" ticks="367" durationTicks="48" ppq="96" velocity="0.844"/>
      <note number="7" values="3" ticks="414" durationTicks="71" ppq="96" velocity="0.906"/>
    </notes>
  </exercise>
  <exercise number="8">
    <scale>major</scale>
    <bpm>120</bpm>
    <lowestNote>1</lowestNote>
    <tonalities>5</tonalities>
    <video name="24t.mp4" size="1813003" type="video/mp4" volume="0.5">a7211646b1c4c562d5fb903373d3fe610d8a9f60e97fae000ebdc6de1884ebae</video>
    <notes>
      <note number="1" values="3" ticks="91" durationTicks="51" ppq="96" velocity="0.843"/>
      <note number="2" values="6" ticks="141" durationTicks="62" ppq="96" velocity="0.889"/>
      <note number="3" values="6" ticks="213" durationTicks="23" ppq="96" velocity="0.787"/>
      <note number="4" values="6" ticks="238" durationTicks="73" ppq="96" velocity="0.859"/>
    </notes>
  </exercise>
  <exercise number="9">
    <scale>major</scale>
    <bpm>120</bpm>
    <lowestNote>1</lowestNote>
    <tonalities>5</tonalities>
    <video name="25t.mp4" size="2304641" type="video/mp4" volume="0.5">ba23dcabf1d77e88a4f9de97c032bd87d28302cdaf04a21b556e007523bee99e</video>
    <notes>
      <note number="1" values="3" ticks="27" durationTicks="51" ppq="96" velocity="0.794"/>
      <note number="2" values="6" ticks="73" durationTicks="59" ppq="96" velocity="0.877"/>
      <note number="3" values="6" ticks="146" durationTicks="24" ppq="96" velocity="0.787"/>
      <note number="4" values="6" ticks="169" durationTicks="49" ppq="96" velocity="0.857"/>
      <note number="5" values="5" ticks="218" durationTicks="56" ppq="96" velocity="0.802"/>
      <note number="6" values="2" ticks="276" durationTicks="159" ppq="96" velocity="0.879"/>
    </notes>
  </exercise>
  <exercise number="10">
    <scale>major</scale>
    <bpm>120</bpm>
    <lowestNote>1</lowestNote>
    <tonalities>5</tonalities>
    <video name="26t.mp4" size="2009525" type="video/mp4" volume="0.5">ed72ff70a1556c5197a835f61482bfcfdfbfcb33616dab469d5d048b559b0715</video>
    <notes>
      <note number="1" values="6" ticks="109" durationTicks="96" ppq="96" velocity="0.827"/>
      <note number="2" values="5" ticks="206" durationTicks="96" ppq="96" velocity="0.884"/>
      <note number="3" values="2" ticks="302" durationTicks="95" ppq="96" velocity="0.812"/>
      <note number="4" values="5" ticks="397" durationTicks="95" ppq="96" velocity="0.889"/>
      <note number="5" values="4" ticks="495" durationTicks="111" ppq="96" velocity="0.817"/>
    </notes>
  </exercise>
  <exercise number="11">
    <scale>major</scale>
    <bpm>120</bpm>
    <lowestNote>1</lowestNote>
    <tonalities>5</tonalities>
    <video name="27t.mp4" size="1406803" type="video/mp4" volume="0.5">acdf45f62856ee535ec1e643a8d634787ce68ab19f7e9e71fcf0377c46ec83ac</video>
    <notes>
      <note number="1" values="1" ticks="34" durationTicks="56" ppq="96" velocity="0.843"/>
      <note number="2" values="1" ticks="104" durationTicks="19" ppq="96" velocity="0.804"/>
      <note number="3" values="1" ticks="130" durationTicks="43" ppq="96" velocity="0.854"/>
      <note number="4" values="2" ticks="177" durationTicks="46" ppq="96" velocity="0.797"/>
      <note number="5" values="3" ticks="223" durationTicks="92" ppq="96" velocity="0.882"/>
    </notes>
  </exercise>
  <exercise number="12">
    <scale>major</scale>
    <bpm>120</bpm>
    <lowestNote>5</lowestNote>
    <tonalities>5</tonalities>
    <video name="28t.mp4" size="1615655" type="video/mp4" volume="0.5">af2dbe4b921237d8298b6f4f1d665514dc926d30e76b14bde7bb5b7b92879a76</video>
    <notes>
      <note number="1" values="48" ticks="82" durationTicks="96" ppq="96" velocity="0.799"/>
      <note number="2" values="38" ticks="179" durationTicks="95" ppq="96" velocity="0.877"/>
      <note number="3" values="28" ticks="274" durationTicks="93" ppq="96" velocity="0.837"/>
      <note number="4" values="28" ticks="418" durationTicks="47" ppq="96" velocity="0.799"/>
      <note number="5" values="38" ticks="465" durationTicks="49" ppq="96" velocity="0.849"/>
      <note number="6" values="18" ticks="515" durationTicks="49" ppq="96" velocity="0.807"/>
      <note number="7" values="7" ticks="562" durationTicks="94" ppq="96" velocity="0.877"/>
      <note number="8" values="6" ticks="659" durationTicks="95" ppq="96" velocity="0.842"/>
    </notes>
  </exercise>
  <exercise number="13">
    <scale>major</scale>
    <bpm>120</bpm>
    <lowestNote>85</lowestNote>
    <tonalities>5</tonalities>
    <video name="29t.mp4" size="1568128" type="video/mp4" volume="0.5">1d925abf91886be5ae878d74f14c6ccbbd1b3103d4ba636f8cea7387e4303747</video>
    <notes>
      <note number="1" values="1" ticks="198" durationTicks="34" ppq="96" velocity="0.862"/>
      <note number="2" values="1" ticks="246" durationTicks="49" ppq="96" velocity="0.812"/>
      <note number="3" values="85" ticks="293" durationTicks="33" ppq="96" velocity="0.852"/>
      <note number="4" values="85" ticks="341" durationTicks="48" ppq="96" velocity="0.807"/>
      <note number="5" values="1" ticks="391" durationTicks="30" ppq="96" velocity="0.837"/>
      <note number="6" values="1" ticks="438" durationTicks="48" ppq="96" velocity="0.792"/>
      <note number="7" values="4" ticks="487" durationTicks="94" ppq="96" velocity="0.882"/>
    </notes>
  </exercise>
  <exercise number="14">
    <scale>major</scale>
    <bpm>120</bpm>
    <lowestNote>85</lowestNote>
    <tonalities>5</tonalities>
    <video name="30t.mp4" size="1470176" type="video/mp4" volume="0.5">fadd762545bcb9c52c8bf7133f27fad894ed8a21a8f98a7588fae14e7543514a</video>
    <notes>
      <note number="1" values="1" ticks="30" durationTicks="34" ppq="96" velocity="0.858"/>
      <note number="2" values="1" ticks="78" durationTicks="49" ppq="96" velocity="0.811"/>
      <note number="3" values="85" ticks="125" durationTicks="33" ppq="96" velocity="0.85"/>
      <note number="4" values="85" ticks="175" durationTicks="48" ppq="96" velocity="0.803"/>
      <note number="5" values="1" ticks="222" durationTicks="83" ppq="96" velocity="0.835"/>
      <note number="6" values="1" ticks="318" durationTicks="95" ppq="96" velocity="0.787"/>
    </notes>
  </exercise>
  <exercise number="15">
    <scale>major</scale>
    <bpm>120</bpm>
    <lowestNote>85</lowestNote>
    <tonalities>5</tonalities>
    <video name="31t.mp4" size="2429533" type="video/mp4" volume="0.5">8e26d1c75ffde04b37841694d209b1148fc534edf4a3d5498f3399a05a10f10c</video>
    <notes>
      <note number="1" values="1" ticks="44" durationTicks="34" ppq="96" velocity="0.858"/>
      <note number="2" values="1" ticks="92" durationTicks="49" ppq="96" velocity="0.811"/>
      <note number="3" values="85" ticks="139" durationTicks="33" ppq="96" velocity="0.85"/>
      <note number="4" values="85" ticks="187" durationTicks="48" ppq="96" velocity="0.803"/>
      <note number="5" values="1" ticks="234" durationTicks="30" ppq="96" velocity="0.835"/>
      <note number="6" values="1" ticks="284" durationTicks="48" ppq="96" velocity="0.787"/>
      <note number="7" values="4" ticks="330" durationTicks="157" ppq="96" velocity="0.882"/>
    </notes>
  </exercise>
  <exercise number="16">
    <scale>major</scale>
    <bpm>120</bpm>
    <lowestNote>85</lowestNote>
    <tonalities>5</tonalities>
    <video name="32t.mp4" size="2660452" type="video/mp4" volume="0.5">23eefe5f14a12dfdc4380264188650073cc6e389afe0613609780b13460c6b04</video>
    <notes>
      <note number="1" values="3" ticks="94" durationTicks="55" ppq="96" velocity="0.858"/>
      <note number="2" values="2" ticks="165" durationTicks="26" ppq="96" velocity="0.811"/>
      <note number="3" values="1" ticks="189" durationTicks="37" ppq="96" velocity="0.85"/>
      <note number="4" values="87" ticks="237" durationTicks="48" ppq="96" velocity="0.803"/>
      <note number="5" values="86" ticks="287" durationTicks="96" ppq="96" velocity="0.867"/>
      <note number="6" values="86" ticks="383" durationTicks="48" ppq="96" velocity="0.854"/>
    </notes>
  </exercise>
</level>
